<svg xmlns="http://www.w3.org/2000/svg" viewBox="0 0 64 64" width="64" height="64">
<defs><linearGradient id="m" gradientUnits="userSpaceOnUse" x1="0" y1="1" x2="0" y2="23"><stop offset="0" stop-color="#fff6cc"/><stop offset="0.32" stop-color="#ffd54a"/><stop offset="0.52" stop-color="#e9a300"/><stop offset="0.54" stop-color="#b37700"/><stop offset="1" stop-color="#ffdf80"/></linearGradient><filter id="s" x="-20%" y="-20%" width="140%" height="150%"><feDropShadow dx="0" dy="1.2" stdDeviation="0.9" flood-color="#000" flood-opacity=".75"/></filter></defs>
<g transform="translate(3.5 3.5) scale(2.375)" filter="url(#s)"><path d="M3 8.5h18v4H3zM4.5 12.5h15V21h-15z" fill="url(#m)" stroke="#0b0c0e" stroke-width="1.3" stroke-linejoin="round" paint-order="stroke"/><path d="M11.2 8.5h1.6V21h-1.6z" fill="#1a1204" fill-opacity=".82" fill-rule="evenodd"/><path d="M12 8.5C10.5 4 6.5 4 7 6.8c.3 1.4 3 1.7 5 1.7zm0 0c1.5-4.5 5.5-4.5 5-1.7-.3 1.4-3 1.7-5 1.7z" fill="none" stroke="#0b0c0e" stroke-width="2.8" stroke-linecap="round" stroke-linejoin="round"/><path d="M12 8.5C10.5 4 6.5 4 7 6.8c.3 1.4 3 1.7 5 1.7zm0 0c1.5-4.5 5.5-4.5 5-1.7-.3 1.4-3 1.7-5 1.7z" fill="none" stroke="url(#m)" stroke-width="1.4" stroke-linecap="round" stroke-linejoin="round"/></g>
</svg>
